<svg xmlns="http://www.w3.org/2000/svg" version="1.0" width="512.000000pt" height="512.000000pt" viewBox="-3 -3 518 518" preserveAspectRatio="xMidYMid meet" transform="matrix(-1, 0, 0, 1, 0, 0)"><g id="deeditor_bgCarrier" stroke-width="0">
    <rect id="dee_c_e" x="-3" y="-3" width="518" height="518" rx="0" fill="#343a40" strokewidth="0"/>
  </g>

<g transform="translate(0.000000,512.000000) scale(0.100000,-0.100000)" fill="#ffffff" stroke="none">
<path d="M1445 5061 c-55 -33 -69 -66 -73 -173 l-4 -98 -157 0 c-86 0 -194 -5 -240 -10 -424 -54 -740 -382 -781 -811 -8 -79 -10 -585 -7 -1639 3 -1390 5 -1531 20 -1593 44 -178 117 -307 247 -437 100 -100 159 -141 287 -195 159 -68 62 -65 1823 -65 1761 0 1664 -3 1823 65 114 49 180 91 264 169 128 119 214 262 261 435 l27 96 3 1525 c2 1051 0 1561 -8 1639 -41 429 -357 757 -781 811 -46 5 -154 10 -241 10 l-158 0 0 83 c0 99 -23 157 -72 187 -46 28 -115 27 -159 -3 -53 -35 -69 -78 -69 -179 l0 -88 -890 0 -890 0 0 88 c0 101 -16 144 -69 179 -43 29 -113 31 -156 4z m-73 -671 c3 -80 8 -105 24 -127 37 -49 70 -67 124 -67 54 0 87 18 124 68 17 22 22 45 24 127 l4 99 888 0 888 0 4 -99 c2 -82 7 -105 24 -127 37 -50 70 -68 124 -68 54 0 87 18 124 68 17 22 22 45 24 128 l4 100 206 -4 c176 -4 215 -8 262 -25 171 -63 281 -158 356 -308 50 -102 64 -182 64 -382 l0 -173 -2080 0 -2080 0 0 173 c0 112 5 196 15 242 44 207 204 383 410 448 73 23 83 24 281 26 l182 1 4 -100z m3266 -2332 l-3 -1243 -23 -65 c-69 -192 -202 -325 -387 -388 l-80 -27 -1585 0 -1585 0 -85 31 c-157 56 -273 156 -344 297 -68 135 -66 81 -66 1425 l0 1212 2080 0 2081 0 -3 -1242z" fill="#ffffff"/>
<path d="M2505 2696 c-37 -17 -70 -52 -84 -89 -7 -18 -11 -141 -11 -332 l0 -304 -319 -3 c-306 -3 -321 -4 -348 -24 -52 -39 -75 -83 -70 -137 5 -57 30 -95 78 -119 30 -16 69 -18 347 -18 l312 0 0 -313 c0 -285 2 -315 19 -347 56 -107 206 -107 262 0 17 32 19 62 19 347 l0 313 313 0 c277 0 316 2 346 18 48 24 73 62 78 119 5 54 -18 98 -70 137 -27 20 -42 21 -347 24 l-319 3 -3 319 c-3 304 -4 320 -24 346 -47 64 -119 88 -179 60z" fill="#ffffff"/>
</g>
</svg>