<?xml version="1.0" standalone="no"?>
<!DOCTYPE svg PUBLIC "-//W3C//DTD SVG 20010904//EN"
 "http://www.w3.org/TR/2001/REC-SVG-20010904/DTD/svg10.dtd">
<svg version="1.0" xmlns="http://www.w3.org/2000/svg"
 width="285.000000pt" height="283.000000pt" viewBox="0 0 285.000000 283.000000"
 preserveAspectRatio="xMidYMid meet">

<g transform="translate(0.000000,283.000000) scale(0.100000,-0.100000)"
fill="#fff" stroke="none">
<path d="M304 2436 c-3 -8 -4 -205 -2 -438 4 -402 6 -427 27 -498 76 -256 281
-457 529 -521 41 -10 76 -20 78 -22 1 -1 7 -39 13 -85 33 -251 218 -464 466
-538 92 -27 249 -25 345 4 237 74 403 257 454 502 4 18 16 30 39 38 43 15 122
93 149 146 16 30 23 66 26 129 4 83 3 91 -27 152 -58 117 -154 178 -281 179
-94 0 -168 -31 -234 -100 -80 -83 -108 -215 -70 -327 19 -57 92 -141 146 -168
35 -18 39 -23 33 -47 -24 -105 -122 -220 -232 -273 -65 -33 -72 -34 -183 -34
-108 0 -119 2 -175 30 -128 64 -231 205 -242 334 -6 60 -5 60 23 66 76 17 143
39 189 62 190 96 336 270 396 473 21 71 22 98 26 498 4 317 2 426 -7 437 -10
12 -49 14 -213 12 l-202 -2 0 -105 0 -105 103 -3 102 -3 0 -306 c0 -336 -6
-380 -67 -489 -34 -61 -141 -168 -196 -196 -179 -91 -355 -91 -534 0 -57 29
-162 136 -199 202 -62 110 -67 161 -64 712 l0 77 103 3 102 3 0 105 0 105
-208 3 c-174 2 -208 0 -213 -12z m1872 -1184 c64 -51 57 -145 -13 -181 -38
-20 -80 -13 -115 18 -28 25 -33 36 -33 75 0 62 41 106 99 106 24 0 50 -8 62
-18z"/>
<path d="M1040 2220 c-7 -14 -37 -83 -65 -155 l-52 -130 -152 -61 c-83 -34
-153 -63 -156 -66 -3 -2 62 -31 143 -63 81 -32 152 -63 159 -69 6 -6 35 -69
63 -141 28 -71 56 -138 62 -149 9 -17 20 3 70 130 33 82 65 154 71 160 7 6 78
37 159 69 81 32 146 60 145 62 -2 2 -72 31 -156 65 l-153 63 -58 143 c-32 78
-60 148 -63 155 -2 7 -9 1 -17 -13z"/>
</g>
</svg>
