<svg xmlns="http://www.w3.org/2000/svg" viewBox="-91.595 -7.938 56.002 51.572" fill="#50C878">
    <path d="M -65.946 -2.366 C -53.243 -2.366 -42.946 7.931 -42.946 20.634 L -42.946 36.734 C -42.946 38.564 -43.673 40.319 -44.967 41.613 C -46.261 42.907 -48.016 43.634 -49.846 43.634 L -64.796 43.634 L -64.796 33.544 C -64.796 31.241 -64.656 28.856 -63.448 26.897 C -62.584 25.492 -61.427 24.29 -60.057 23.372 C -58.688 22.454 -57.136 21.841 -55.509 21.576 L -55.068 21.504 C -54.887 21.442 -54.729 21.325 -54.617 21.169 C -54.506 21.013 -54.446 20.826 -54.446 20.634 C -54.446 20.442 -54.506 20.255 -54.617 20.099 C -54.729 19.943 -54.887 19.825 -55.068 19.763 L -55.509 19.692 C -57.887 19.303 -60.083 18.178 -61.786 16.474 C -63.49 14.77 -64.616 12.574 -65.004 10.196 L -65.076 9.756 C -65.138 9.574 -65.255 9.417 -65.411 9.305 C -65.567 9.193 -65.754 9.133 -65.946 9.133 C -66.138 9.133 -66.325 9.193 -66.481 9.305 C -66.637 9.417 -66.755 9.574 -66.817 9.756 L -66.888 10.196 C -67.154 11.824 -67.766 13.375 -68.684 14.745 C -69.603 16.115 -70.805 17.272 -72.209 18.136 C -74.169 19.343 -76.554 19.484 -78.856 19.484 L -88.918 19.484 C -88.317 7.316 -78.263 -2.366 -65.946 -2.366 Z" />
    <path d="M -88.946 21.784 L -78.856 21.784 C -76.553 21.784 -74.168 21.924 -72.209 23.132 C -70.677 24.075 -69.388 25.365 -68.444 26.897 C -67.236 28.856 -67.096 31.241 -67.096 33.544 L -67.096 43.634 L -82.046 43.634 C -83.876 43.634 -85.631 42.907 -86.925 41.613 C -88.219 40.319 -88.946 38.564 -88.946 36.734 L -88.946 21.784 Z M -42.946 -0.066 C -42.946 0.544 -43.188 1.129 -43.62 1.56 C -44.051 1.991 -44.636 2.234 -45.246 2.234 C -45.856 2.234 -46.441 1.991 -46.872 1.56 C -47.304 1.129 -47.546 0.544 -47.546 -0.066 C -47.546 -0.676 -47.304 -1.261 -46.872 -1.693 C -46.441 -2.124 -45.856 -2.366 -45.246 -2.366 C -44.636 -2.366 -44.051 -2.124 -43.62 -1.693 C -43.188 -1.261 -42.946 -0.676 -42.946 -0.066 Z" />
</svg>